<svg id="visual" viewBox="0 0 960 540" width="960" height="540" xmlns="http://www.w3.org/2000/svg" xmlns:xlink="http://www.w3.org/1999/xlink" version="1.1"><rect x="0" y="0" width="960" height="540" fill="#1e1e1e"></rect><defs><linearGradient id="grad1_0" x1="43.8%" y1="0%" x2="100%" y2="100%"><stop offset="14.444444444444446%" stop-color="#007c87" stop-opacity="1"></stop><stop offset="85.55555555555554%" stop-color="#007c87" stop-opacity="1"></stop></linearGradient></defs><defs><linearGradient id="grad1_1" x1="43.8%" y1="0%" x2="100%" y2="100%"><stop offset="14.444444444444446%" stop-color="#007c87" stop-opacity="1"></stop><stop offset="85.55555555555554%" stop-color="#166d77" stop-opacity="1"></stop></linearGradient></defs><defs><linearGradient id="grad1_2" x1="43.8%" y1="0%" x2="100%" y2="100%"><stop offset="14.444444444444446%" stop-color="#1f5f67" stop-opacity="1"></stop><stop offset="85.55555555555554%" stop-color="#166d77" stop-opacity="1"></stop></linearGradient></defs><defs><linearGradient id="grad1_3" x1="43.8%" y1="0%" x2="100%" y2="100%"><stop offset="14.444444444444446%" stop-color="#1f5f67" stop-opacity="1"></stop><stop offset="85.55555555555554%" stop-color="#235157" stop-opacity="1"></stop></linearGradient></defs><defs><linearGradient id="grad1_4" x1="43.8%" y1="0%" x2="100%" y2="100%"><stop offset="14.444444444444446%" stop-color="#244448" stop-opacity="1"></stop><stop offset="85.55555555555554%" stop-color="#235157" stop-opacity="1"></stop></linearGradient></defs><defs><linearGradient id="grad1_5" x1="43.8%" y1="0%" x2="100%" y2="100%"><stop offset="14.444444444444446%" stop-color="#244448" stop-opacity="1"></stop><stop offset="85.55555555555554%" stop-color="#233739" stop-opacity="1"></stop></linearGradient></defs><defs><linearGradient id="grad1_6" x1="43.8%" y1="0%" x2="100%" y2="100%"><stop offset="14.444444444444446%" stop-color="#212a2b" stop-opacity="1"></stop><stop offset="85.55555555555554%" stop-color="#233739" stop-opacity="1"></stop></linearGradient></defs><defs><linearGradient id="grad1_7" x1="43.8%" y1="0%" x2="100%" y2="100%"><stop offset="14.444444444444446%" stop-color="#212a2b" stop-opacity="1"></stop><stop offset="85.55555555555554%" stop-color="#1e1e1e" stop-opacity="1"></stop></linearGradient></defs><defs><linearGradient id="grad2_0" x1="0%" y1="0%" x2="56.3%" y2="100%"><stop offset="14.444444444444446%" stop-color="#007c87" stop-opacity="1"></stop><stop offset="85.55555555555554%" stop-color="#007c87" stop-opacity="1"></stop></linearGradient></defs><defs><linearGradient id="grad2_1" x1="0%" y1="0%" x2="56.3%" y2="100%"><stop offset="14.444444444444446%" stop-color="#166d77" stop-opacity="1"></stop><stop offset="85.55555555555554%" stop-color="#007c87" stop-opacity="1"></stop></linearGradient></defs><defs><linearGradient id="grad2_2" x1="0%" y1="0%" x2="56.3%" y2="100%"><stop offset="14.444444444444446%" stop-color="#166d77" stop-opacity="1"></stop><stop offset="85.55555555555554%" stop-color="#1f5f67" stop-opacity="1"></stop></linearGradient></defs><defs><linearGradient id="grad2_3" x1="0%" y1="0%" x2="56.3%" y2="100%"><stop offset="14.444444444444446%" stop-color="#235157" stop-opacity="1"></stop><stop offset="85.55555555555554%" stop-color="#1f5f67" stop-opacity="1"></stop></linearGradient></defs><defs><linearGradient id="grad2_4" x1="0%" y1="0%" x2="56.3%" y2="100%"><stop offset="14.444444444444446%" stop-color="#235157" stop-opacity="1"></stop><stop offset="85.55555555555554%" stop-color="#244448" stop-opacity="1"></stop></linearGradient></defs><defs><linearGradient id="grad2_5" x1="0%" y1="0%" x2="56.3%" y2="100%"><stop offset="14.444444444444446%" stop-color="#233739" stop-opacity="1"></stop><stop offset="85.55555555555554%" stop-color="#244448" stop-opacity="1"></stop></linearGradient></defs><defs><linearGradient id="grad2_6" x1="0%" y1="0%" x2="56.3%" y2="100%"><stop offset="14.444444444444446%" stop-color="#233739" stop-opacity="1"></stop><stop offset="85.55555555555554%" stop-color="#212a2b" stop-opacity="1"></stop></linearGradient></defs><defs><linearGradient id="grad2_7" x1="0%" y1="0%" x2="56.3%" y2="100%"><stop offset="14.444444444444446%" stop-color="#1e1e1e" stop-opacity="1"></stop><stop offset="85.55555555555554%" stop-color="#212a2b" stop-opacity="1"></stop></linearGradient></defs><g transform="translate(960, 0)"><path d="M0 540C-35.8 561.8 -71.7 583.6 -84.5 533.4C-97.3 483.1 -87 360.8 -112.2 345.2C-137.4 329.6 -198 420.7 -207.9 408.1C-217.9 395.5 -177.1 279.3 -165.8 228.1C-154.5 177 -172.6 191 -198 198C-223.3 205 -255.8 205.1 -261.3 189.9C-266.8 174.6 -245.3 144.1 -247.7 126.2C-250.1 108.3 -276.5 103 -286.3 93C-296.1 83 -289.4 68.4 -328.9 52.1C-368.4 35.8 -454.2 17.9 -540 0L0 0Z" fill="#202425"></path><path d="M0 472.5C-31.4 491.6 -62.7 510.6 -73.9 466.7C-85.1 422.7 -76.1 315.7 -98.2 302.1C-120.2 288.4 -173.3 368.1 -181.9 357.1C-190.6 346.1 -154.9 244.4 -145 199.6C-135.1 154.9 -151.1 167.1 -173.2 173.2C-195.4 179.4 -223.8 179.4 -228.6 166.1C-233.5 152.8 -214.6 126.1 -216.7 110.4C-218.8 94.8 -241.9 90.1 -250.5 81.4C-259.1 72.7 -253.2 59.8 -287.8 45.6C-322.4 31.3 -397.4 15.7 -472.5 0L0 0Z" fill="#233032"></path><path d="M0 405C-26.9 421.3 -53.8 437.7 -63.4 400C-72.9 362.3 -65.2 270.6 -84.1 258.9C-103 247.2 -148.5 315.5 -155.9 306.1C-163.4 296.6 -132.8 209.5 -124.3 171.1C-115.8 132.8 -129.5 143.2 -148.5 148.5C-167.5 153.8 -191.9 153.8 -196 142.4C-200.1 131 -184 108.1 -185.8 94.7C-187.6 81.2 -207.3 77.2 -214.7 69.8C-222.1 62.3 -217 51.3 -246.7 39.1C-276.3 26.9 -340.7 13.4 -405 0L0 0Z" fill="#243d41"></path><path d="M0 337.5C-22.4 351.1 -44.8 364.7 -52.8 333.3C-60.8 301.9 -54.4 225.5 -70.1 215.8C-85.8 206 -123.8 262.9 -130 255.1C-136.2 247.2 -110.7 174.5 -103.6 142.6C-96.5 110.6 -107.9 119.4 -123.7 123.7C-139.6 128.1 -159.9 128.2 -163.3 118.7C-166.8 109.1 -153.3 90.1 -154.8 78.9C-156.3 67.7 -172.8 64.4 -178.9 58.1C-185.1 51.9 -180.9 42.7 -205.6 32.6C-230.3 22.4 -283.9 11.2 -337.5 0L0 0Z" fill="#244b4f"></path><path d="M0 270C-17.9 280.9 -35.8 291.8 -42.2 266.7C-48.6 241.6 -43.5 180.4 -56.1 172.6C-68.7 164.8 -99 210.3 -104 204C-108.9 197.7 -88.5 139.6 -82.9 114.1C-77.2 88.5 -86.3 95.5 -99 99C-111.7 102.5 -127.9 102.5 -130.7 94.9C-133.4 87.3 -122.6 72.1 -123.8 63.1C-125.1 54.2 -138.2 51.5 -143.1 46.5C-148 41.5 -144.7 34.2 -164.5 26C-184.2 17.9 -227.1 9 -270 0L0 0Z" fill="#21585f"></path><path d="M0 202.5C-13.4 210.7 -26.9 218.8 -31.7 200C-36.5 181.2 -32.6 135.3 -42.1 129.5C-51.5 123.6 -74.3 157.8 -78 153C-81.7 148.3 -66.4 104.7 -62.2 85.6C-57.9 66.4 -64.7 71.6 -74.2 74.2C-83.7 76.9 -95.9 76.9 -98 71.2C-100.1 65.5 -92 54 -92.9 47.3C-93.8 40.6 -103.7 38.6 -107.4 34.9C-111 31.1 -108.5 25.6 -123.3 19.5C-138.2 13.4 -170.3 6.7 -202.5 0L0 0Z" fill="#1b666f"></path><path d="M0 135C-9 140.4 -17.9 145.9 -21.1 133.3C-24.3 120.8 -21.7 90.2 -28 86.3C-34.3 82.4 -49.5 105.2 -52 102C-54.5 98.9 -44.3 69.8 -41.4 57C-38.6 44.3 -43.2 47.7 -49.5 49.5C-55.8 51.3 -64 51.3 -65.3 47.5C-66.7 43.7 -61.3 36 -61.9 31.6C-62.5 27.1 -69.1 25.7 -71.6 23.3C-74 20.8 -72.3 17.1 -82.2 13C-92.1 9 -113.6 4.5 -135 0L0 0Z" fill="#0e757f"></path><path d="M0 67.5C-4.5 70.2 -9 72.9 -10.6 66.7C-12.2 60.4 -10.9 45.1 -14 43.2C-17.2 41.2 -24.8 52.6 -26 51C-27.2 49.4 -22.1 34.9 -20.7 28.5C-19.3 22.1 -21.6 23.9 -24.7 24.7C-27.9 25.6 -32 25.6 -32.7 23.7C-33.4 21.8 -30.7 18 -31 15.8C-31.3 13.5 -34.6 12.9 -35.8 11.6C-37 10.4 -36.2 8.5 -41.1 6.5C-46.1 4.5 -56.8 2.2 -67.5 0L0 0Z" fill="#007c87"></path></g><g transform="translate(0, 540)"><path d="M0 -540C26.2 -530.6 52.5 -521.2 82.3 -519.5C112.1 -517.8 145.4 -523.7 160.4 -493.6C175.4 -463.5 172 -397.2 189.3 -371.5C206.6 -345.9 244.7 -360.8 236.9 -326C229.1 -291.3 175.4 -206.8 195.9 -195.9C216.4 -184.9 311 -247.5 368.9 -268C426.8 -288.6 448 -267.2 481.1 -245.2C514.3 -223.1 559.5 -200.4 500.3 -162.5C441 -124.7 277.4 -71.8 266.7 -42.2C255.9 -12.6 398 -6.3 540 0L0 0Z" fill="#202425"></path><path d="M0 -472.5C23 -464.3 45.9 -456.1 72 -454.6C98.1 -453.1 127.2 -458.3 140.3 -431.9C153.4 -405.5 150.5 -347.6 165.6 -325.1C180.8 -302.7 214.1 -315.7 207.3 -285.3C200.4 -254.9 153.5 -181 171.4 -171.4C189.3 -161.8 272.1 -216.5 322.8 -234.5C373.5 -252.5 392 -233.8 421 -214.5C450 -195.2 489.5 -175.3 437.7 -142.2C385.9 -109.1 242.8 -62.9 233.3 -37C223.9 -11.1 348.2 -5.5 472.5 0L0 0Z" fill="#233032"></path><path d="M0 -405C19.7 -398 39.4 -390.9 61.7 -389.6C84.1 -388.4 109.1 -392.8 120.3 -370.2C131.5 -347.6 129 -297.9 142 -278.7C155 -259.4 183.5 -270.6 177.7 -244.5C171.8 -218.5 131.5 -155.1 146.9 -146.9C162.3 -138.7 233.3 -185.6 276.7 -201C320.1 -216.5 336 -200.4 360.9 -183.9C385.7 -167.3 419.6 -150.3 375.2 -121.9C330.8 -93.5 208.1 -53.9 200 -31.7C191.9 -9.5 298.5 -4.7 405 0L0 0Z" fill="#243d41"></path><path d="M0 -337.5C16.4 -331.6 32.8 -325.8 51.4 -324.7C70 -323.6 90.9 -327.3 100.2 -308.5C109.6 -289.7 107.5 -248.3 118.3 -232.2C129.2 -216.2 152.9 -225.5 148 -203.8C143.2 -182 109.6 -129.3 122.4 -122.4C135.2 -115.6 194.4 -154.7 230.6 -167.5C266.8 -180.4 280 -167 300.7 -153.2C321.4 -139.4 349.7 -125.2 312.7 -101.6C275.7 -78 173.4 -44.9 166.7 -26.4C159.9 -7.9 248.7 -3.9 337.5 0L0 0Z" fill="#244b4f"></path><path d="M0 -270C13.1 -265.3 26.2 -260.6 41.1 -259.8C56 -258.9 72.7 -261.9 80.2 -246.8C87.7 -231.7 86 -198.6 94.7 -185.8C103.3 -172.9 122.3 -180.4 118.4 -163C114.5 -145.6 87.7 -103.4 97.9 -97.9C108.2 -92.5 155.5 -123.7 184.5 -134C213.4 -144.3 224 -133.6 240.6 -122.6C257.2 -111.5 279.7 -100.2 250.1 -81.3C220.5 -62.4 138.7 -35.9 133.3 -21.1C128 -6.3 199 -3.2 270 0L0 0Z" fill="#21585f"></path><path d="M0 -202.5C9.8 -199 19.7 -195.5 30.9 -194.8C42 -194.2 54.5 -196.4 60.1 -185.1C65.8 -173.8 64.5 -149 71 -139.3C77.5 -129.7 91.8 -135.3 88.8 -122.3C85.9 -109.2 65.8 -77.6 73.5 -73.5C81.1 -69.3 116.6 -92.8 138.3 -100.5C160.1 -108.2 168 -100.2 180.4 -91.9C192.9 -83.7 209.8 -75.1 187.6 -61C165.4 -46.8 104 -26.9 100 -15.8C96 -4.7 149.2 -2.4 202.5 0L0 0Z" fill="#1b666f"></path><path d="M0 -135C6.6 -132.7 13.1 -130.3 20.6 -129.9C28 -129.5 36.4 -130.9 40.1 -123.4C43.8 -115.9 43 -99.3 47.3 -92.9C51.7 -86.5 61.2 -90.2 59.2 -81.5C57.3 -72.8 43.8 -51.7 49 -49C54.1 -46.2 77.8 -61.9 92.2 -67C106.7 -72.2 112 -66.8 120.3 -61.3C128.6 -55.8 139.9 -50.1 125.1 -40.6C110.3 -31.2 69.4 -18 66.7 -10.6C64 -3.2 99.5 -1.6 135 0L0 0Z" fill="#0e757f"></path><path d="M0 -67.5C3.3 -66.3 6.6 -65.2 10.3 -64.9C14 -64.7 18.2 -65.5 20 -61.7C21.9 -57.9 21.5 -49.7 23.7 -46.4C25.8 -43.2 30.6 -45.1 29.6 -40.8C28.6 -36.4 21.9 -25.9 24.5 -24.5C27 -23.1 38.9 -30.9 46.1 -33.5C53.4 -36.1 56 -33.4 60.1 -30.6C64.3 -27.9 69.9 -25 62.5 -20.3C55.1 -15.6 34.7 -9 33.3 -5.3C32 -1.6 49.7 -0.8 67.5 0L0 0Z" fill="#007c87"></path></g></svg>