<svg id="visual" viewBox="0 0 960 540" width="960" height="540" xmlns="http://www.w3.org/2000/svg" xmlns:xlink="http://www.w3.org/1999/xlink" version="1.1"><rect x="0" y="0" width="960" height="540" fill="#e7e7e7"></rect><path d="M0 336L7 354C14 372 28 408 41.8 410.5C55.7 413 69.3 382 83.2 361.2C97 340.3 111 329.7 125 319.3C139 309 153 299 167 303.5C181 308 195 327 208.8 334.5C222.7 342 236.3 338 250.2 333.5C264 329 278 324 292 334.5C306 345 320 371 334 384.7C348 398.3 362 399.7 375.8 408.7C389.7 417.7 403.3 434.3 417.2 419.3C431 404.3 445 357.7 459 329.3C473 301 487 291 501 319.7C515 348.3 529 415.7 542.8 428C556.7 440.3 570.3 397.7 584.2 395.5C598 393.3 612 431.7 626 448C640 464.3 654 458.7 668 429.2C682 399.7 696 346.3 709.8 334.8C723.7 323.3 737.3 353.7 751.2 357.5C765 361.3 779 338.7 793 348C807 357.3 821 398.7 835 423.7C849 448.7 863 457.3 876.8 456C890.7 454.7 904.3 443.3 918.2 423.5C932 403.7 946 375.3 953 361.2L960 347L960 541L953 541C946 541 932 541 918.2 541C904.3 541 890.7 541 876.8 541C863 541 849 541 835 541C821 541 807 541 793 541C779 541 765 541 751.2 541C737.3 541 723.7 541 709.8 541C696 541 682 541 668 541C654 541 640 541 626 541C612 541 598 541 584.2 541C570.3 541 556.7 541 542.8 541C529 541 515 541 501 541C487 541 473 541 459 541C445 541 431 541 417.2 541C403.3 541 389.7 541 375.8 541C362 541 348 541 334 541C320 541 306 541 292 541C278 541 264 541 250.2 541C236.3 541 222.7 541 208.8 541C195 541 181 541 167 541C153 541 139 541 125 541C111 541 97 541 83.2 541C69.3 541 55.7 541 41.8 541C28 541 14 541 7 541L0 541Z" fill="#ffffff"></path><path d="M0 455L7 443C14 431 28 407 41.8 390.5C55.7 374 69.3 365 83.2 386.7C97 408.3 111 460.7 125 487.5C139 514.3 153 515.7 167 481.2C181 446.7 195 376.3 208.8 344.7C222.7 313 236.3 320 250.2 348.8C264 377.7 278 428.3 292 448.5C306 468.7 320 458.3 334 456.8C348 455.3 362 462.7 375.8 444.8C389.7 427 403.3 384 417.2 365.5C431 347 445 353 459 362.3C473 371.7 487 384.3 501 400.2C515 416 529 435 542.8 440.8C556.7 446.7 570.3 439.3 584.2 433.8C598 428.3 612 424.7 626 413.5C640 402.3 654 383.7 668 363.5C682 343.3 696 321.7 709.8 319.8C723.7 318 737.3 336 751.2 367C765 398 779 442 793 433.5C807 425 821 364 835 364.7C849 365.3 863 427.7 876.8 459.7C890.7 491.7 904.3 493.3 918.2 483.5C932 473.7 946 452.3 953 441.7L960 431L960 541L953 541C946 541 932 541 918.2 541C904.3 541 890.7 541 876.8 541C863 541 849 541 835 541C821 541 807 541 793 541C779 541 765 541 751.2 541C737.3 541 723.7 541 709.8 541C696 541 682 541 668 541C654 541 640 541 626 541C612 541 598 541 584.2 541C570.3 541 556.7 541 542.8 541C529 541 515 541 501 541C487 541 473 541 459 541C445 541 431 541 417.2 541C403.3 541 389.7 541 375.8 541C362 541 348 541 334 541C320 541 306 541 292 541C278 541 264 541 250.2 541C236.3 541 222.7 541 208.8 541C195 541 181 541 167 541C153 541 139 541 125 541C111 541 97 541 83.2 541C69.3 541 55.7 541 41.8 541C28 541 14 541 7 541L0 541Z" fill="#e1e1e1"></path><path d="M0 491L7 491.2C14 491.3 28 491.7 41.8 482.7C55.7 473.7 69.3 455.3 83.2 440.5C97 425.7 111 414.3 125 425.8C139 437.3 153 471.7 167 460.3C181 449 195 392 208.8 388.8C222.7 385.7 236.3 436.3 250.2 458.5C264 480.7 278 474.3 292 472.7C306 471 320 474 334 461.7C348 449.3 362 421.7 375.8 412.3C389.7 403 403.3 412 417.2 430.2C431 448.3 445 475.7 459 478.8C473 482 487 461 501 447.7C515 434.3 529 428.7 542.8 425.8C556.7 423 570.3 423 584.2 422C598 421 612 419 626 425.3C640 431.7 654 446.3 668 455.3C682 464.3 696 467.7 709.8 455.8C723.7 444 737.3 417 751.2 408C765 399 779 408 793 403.2C807 398.3 821 379.7 835 381C849 382.3 863 403.7 876.8 407.5C890.7 411.3 904.3 397.7 918.2 404C932 410.3 946 436.7 953 449.8L960 463L960 541L953 541C946 541 932 541 918.2 541C904.3 541 890.7 541 876.8 541C863 541 849 541 835 541C821 541 807 541 793 541C779 541 765 541 751.2 541C737.3 541 723.7 541 709.8 541C696 541 682 541 668 541C654 541 640 541 626 541C612 541 598 541 584.2 541C570.3 541 556.7 541 542.8 541C529 541 515 541 501 541C487 541 473 541 459 541C445 541 431 541 417.2 541C403.3 541 389.7 541 375.8 541C362 541 348 541 334 541C320 541 306 541 292 541C278 541 264 541 250.2 541C236.3 541 222.7 541 208.8 541C195 541 181 541 167 541C153 541 139 541 125 541C111 541 97 541 83.2 541C69.3 541 55.7 541 41.8 541C28 541 14 541 7 541L0 541Z" fill="#c4c4c4"></path><path d="M0 358L7 381C14 404 28 450 41.8 475.3C55.7 500.7 69.3 505.3 83.2 506.7C97 508 111 506 125 486.8C139 467.7 153 431.3 167 410.7C181 390 195 385 208.8 377.5C222.7 370 236.3 360 250.2 369.2C264 378.3 278 406.7 292 418C306 429.3 320 423.7 334 429.7C348 435.7 362 453.3 375.8 455.7C389.7 458 403.3 445 417.2 448.2C431 451.3 445 470.7 459 459.7C473 448.7 487 407.3 501 409.8C515 412.3 529 458.7 542.8 481.8C556.7 505 570.3 505 584.2 491C598 477 612 449 626 425.8C640 402.7 654 384.3 668 382.2C682 380 696 394 709.8 415.5C723.7 437 737.3 466 751.2 461.3C765 456.7 779 418.3 793 415.3C807 412.3 821 444.7 835 458.2C849 471.7 863 466.3 876.8 451C890.7 435.7 904.3 410.3 918.2 412.3C932 414.3 946 443.7 953 458.3L960 473L960 541L953 541C946 541 932 541 918.2 541C904.3 541 890.7 541 876.8 541C863 541 849 541 835 541C821 541 807 541 793 541C779 541 765 541 751.2 541C737.3 541 723.7 541 709.8 541C696 541 682 541 668 541C654 541 640 541 626 541C612 541 598 541 584.2 541C570.3 541 556.7 541 542.8 541C529 541 515 541 501 541C487 541 473 541 459 541C445 541 431 541 417.2 541C403.3 541 389.7 541 375.8 541C362 541 348 541 334 541C320 541 306 541 292 541C278 541 264 541 250.2 541C236.3 541 222.7 541 208.8 541C195 541 181 541 167 541C153 541 139 541 125 541C111 541 97 541 83.2 541C69.3 541 55.7 541 41.8 541C28 541 14 541 7 541L0 541Z" fill="#a8a8a8"></path><path d="M0 483L7 481.2C14 479.3 28 475.7 41.8 467.2C55.7 458.7 69.3 445.3 83.2 435.5C97 425.7 111 419.3 125 424.7C139 430 153 447 167 443C181 439 195 414 208.8 403.5C222.7 393 236.3 397 250.2 403.2C264 409.3 278 417.7 292 427C306 436.3 320 446.7 334 461.5C348 476.3 362 495.7 375.8 482C389.7 468.3 403.3 421.7 417.2 409.5C431 397.3 445 419.7 459 438.7C473 457.7 487 473.3 501 477.7C515 482 529 475 542.8 465.8C556.7 456.7 570.3 445.3 584.2 448.7C598 452 612 470 626 462.5C640 455 654 422 668 422C682 422 696 455 709.8 465.8C723.7 476.7 737.3 465.3 751.2 466C765 466.7 779 479.3 793 483.2C807 487 821 482 835 469.7C849 457.3 863 437.7 876.8 437.8C890.7 438 904.3 458 918.2 468.3C932 478.7 946 479.3 953 479.7L960 480L960 541L953 541C946 541 932 541 918.2 541C904.3 541 890.7 541 876.8 541C863 541 849 541 835 541C821 541 807 541 793 541C779 541 765 541 751.2 541C737.3 541 723.7 541 709.8 541C696 541 682 541 668 541C654 541 640 541 626 541C612 541 598 541 584.2 541C570.3 541 556.7 541 542.8 541C529 541 515 541 501 541C487 541 473 541 459 541C445 541 431 541 417.2 541C403.3 541 389.7 541 375.8 541C362 541 348 541 334 541C320 541 306 541 292 541C278 541 264 541 250.2 541C236.3 541 222.7 541 208.8 541C195 541 181 541 167 541C153 541 139 541 125 541C111 541 97 541 83.2 541C69.3 541 55.7 541 41.8 541C28 541 14 541 7 541L0 541Z" fill="#8c8c8c"></path><path d="M0 483L7 486.8C14 490.7 28 498.3 41.8 484.2C55.7 470 69.3 434 83.2 431.8C97 429.7 111 461.3 125 482.7C139 504 153 515 167 504.5C181 494 195 462 208.8 455.8C222.7 449.7 236.3 469.3 250.2 476.5C264 483.7 278 478.3 292 465.2C306 452 320 431 334 439.3C348 447.7 362 485.3 375.8 484.5C389.7 483.7 403.3 444.3 417.2 431.7C431 419 445 433 459 434.2C473 435.3 487 423.7 501 432.7C515 441.7 529 471.3 542.8 487.3C556.7 503.3 570.3 505.7 584.2 499.8C598 494 612 480 626 470.3C640 460.7 654 455.3 668 453.8C682 452.3 696 454.7 709.8 455.5C723.7 456.3 737.3 455.7 751.2 448.2C765 440.7 779 426.3 793 428.5C807 430.7 821 449.3 835 450.2C849 451 863 434 876.8 430.2C890.7 426.3 904.3 435.7 918.2 436C932 436.3 946 427.7 953 423.3L960 419L960 541L953 541C946 541 932 541 918.2 541C904.3 541 890.7 541 876.8 541C863 541 849 541 835 541C821 541 807 541 793 541C779 541 765 541 751.2 541C737.3 541 723.7 541 709.8 541C696 541 682 541 668 541C654 541 640 541 626 541C612 541 598 541 584.2 541C570.3 541 556.7 541 542.8 541C529 541 515 541 501 541C487 541 473 541 459 541C445 541 431 541 417.2 541C403.3 541 389.7 541 375.8 541C362 541 348 541 334 541C320 541 306 541 292 541C278 541 264 541 250.2 541C236.3 541 222.7 541 208.8 541C195 541 181 541 167 541C153 541 139 541 125 541C111 541 97 541 83.2 541C69.3 541 55.7 541 41.8 541C28 541 14 541 7 541L0 541Z" fill="#727272"></path><path d="M0 492L7 495.5C14 499 28 506 41.8 501.5C55.7 497 69.3 481 83.2 467.5C97 454 111 443 125 448.5C139 454 153 476 167 490.5C181 505 195 512 208.8 513C222.7 514 236.3 509 250.2 500.2C264 491.3 278 478.7 292 473.2C306 467.7 320 469.3 334 465.2C348 461 362 451 375.8 452.3C389.7 453.7 403.3 466.3 417.2 465C431 463.7 445 448.3 459 439.5C473 430.7 487 428.3 501 430.8C515 433.3 529 440.7 542.8 439.8C556.7 439 570.3 430 584.2 433.8C598 437.7 612 454.3 626 470.2C640 486 654 501 668 507.2C682 513.3 696 510.7 709.8 503.2C723.7 495.7 737.3 483.3 751.2 483.8C765 484.3 779 497.7 793 503.5C807 509.3 821 507.7 835 492.7C849 477.7 863 449.3 876.8 453.5C890.7 457.7 904.3 494.3 918.2 503.8C932 513.3 946 495.7 953 486.8L960 478L960 541L953 541C946 541 932 541 918.2 541C904.3 541 890.7 541 876.8 541C863 541 849 541 835 541C821 541 807 541 793 541C779 541 765 541 751.2 541C737.3 541 723.7 541 709.8 541C696 541 682 541 668 541C654 541 640 541 626 541C612 541 598 541 584.2 541C570.3 541 556.7 541 542.8 541C529 541 515 541 501 541C487 541 473 541 459 541C445 541 431 541 417.2 541C403.3 541 389.7 541 375.8 541C362 541 348 541 334 541C320 541 306 541 292 541C278 541 264 541 250.2 541C236.3 541 222.7 541 208.8 541C195 541 181 541 167 541C153 541 139 541 125 541C111 541 97 541 83.2 541C69.3 541 55.7 541 41.8 541C28 541 14 541 7 541L0 541Z" fill="#585858"></path><path d="M0 473L7 479.2C14 485.3 28 497.7 41.8 504C55.7 510.3 69.3 510.7 83.2 509.8C97 509 111 507 125 503.5C139 500 153 495 167 485C181 475 195 460 208.8 456C222.7 452 236.3 459 250.2 459.3C264 459.7 278 453.3 292 456.8C306 460.3 320 473.7 334 477.3C348 481 362 475 375.8 472.3C389.7 469.7 403.3 470.3 417.2 465.7C431 461 445 451 459 450.3C473 449.7 487 458.3 501 465.7C515 473 529 479 542.8 485.3C556.7 491.7 570.3 498.3 584.2 492C598 485.7 612 466.3 626 468.5C640 470.7 654 494.3 668 499.2C682 504 696 490 709.8 491.8C723.7 493.7 737.3 511.3 751.2 513C765 514.7 779 500.3 793 496.2C807 492 821 498 835 495.2C849 492.3 863 480.7 876.8 475.8C890.7 471 904.3 473 918.2 471.7C932 470.3 946 465.7 953 463.3L960 461L960 541L953 541C946 541 932 541 918.2 541C904.3 541 890.7 541 876.8 541C863 541 849 541 835 541C821 541 807 541 793 541C779 541 765 541 751.2 541C737.3 541 723.7 541 709.8 541C696 541 682 541 668 541C654 541 640 541 626 541C612 541 598 541 584.2 541C570.3 541 556.7 541 542.8 541C529 541 515 541 501 541C487 541 473 541 459 541C445 541 431 541 417.2 541C403.3 541 389.7 541 375.8 541C362 541 348 541 334 541C320 541 306 541 292 541C278 541 264 541 250.2 541C236.3 541 222.7 541 208.8 541C195 541 181 541 167 541C153 541 139 541 125 541C111 541 97 541 83.2 541C69.3 541 55.7 541 41.8 541C28 541 14 541 7 541L0 541Z" fill="#404040"></path><path d="M0 511L7 504.7C14 498.3 28 485.7 41.8 479.2C55.7 472.7 69.3 472.3 83.2 482.3C97 492.3 111 512.7 125 520.3C139 528 153 523 167 523C181 523 195 528 208.8 527.8C222.7 527.7 236.3 522.3 250.2 519.5C264 516.7 278 516.3 292 509.2C306 502 320 488 334 480.3C348 472.7 362 471.3 375.8 475C389.7 478.7 403.3 487.3 417.2 490.2C431 493 445 490 459 493.3C473 496.7 487 506.3 501 510.2C515 514 529 512 542.8 507.7C556.7 503.3 570.3 496.7 584.2 499.8C598 503 612 516 626 512.2C640 508.3 654 487.7 668 488C682 488.3 696 509.7 709.8 516.3C723.7 523 737.3 515 751.2 510.8C765 506.7 779 506.3 793 505C807 503.7 821 501.3 835 502.2C849 503 863 507 876.8 507.7C890.7 508.3 904.3 505.7 918.2 499.7C932 493.7 946 484.3 953 479.7L960 475L960 541L953 541C946 541 932 541 918.2 541C904.3 541 890.7 541 876.8 541C863 541 849 541 835 541C821 541 807 541 793 541C779 541 765 541 751.2 541C737.3 541 723.7 541 709.8 541C696 541 682 541 668 541C654 541 640 541 626 541C612 541 598 541 584.2 541C570.3 541 556.7 541 542.8 541C529 541 515 541 501 541C487 541 473 541 459 541C445 541 431 541 417.2 541C403.3 541 389.7 541 375.8 541C362 541 348 541 334 541C320 541 306 541 292 541C278 541 264 541 250.2 541C236.3 541 222.7 541 208.8 541C195 541 181 541 167 541C153 541 139 541 125 541C111 541 97 541 83.2 541C69.3 541 55.7 541 41.8 541C28 541 14 541 7 541L0 541Z" fill="#292929"></path><path d="M0 504L7 506.2C14 508.3 28 512.7 41.8 515C55.7 517.3 69.3 517.7 83.2 515.7C97 513.7 111 509.3 125 506C139 502.7 153 500.3 167 499.7C181 499 195 500 208.8 499.8C222.7 499.7 236.3 498.3 250.2 503.5C264 508.7 278 520.3 292 521.5C306 522.7 320 513.3 334 507C348 500.7 362 497.3 375.8 501C389.7 504.7 403.3 515.3 417.2 521.8C431 528.3 445 530.7 459 526.2C473 521.7 487 510.3 501 503.5C515 496.7 529 494.3 542.8 494.7C556.7 495 570.3 498 584.2 504.2C598 510.3 612 519.7 626 524.3C640 529 654 529 668 529.2C682 529.3 696 529.7 709.8 527.3C723.7 525 737.3 520 751.2 520.3C765 520.7 779 526.3 793 530.3C807 534.3 821 536.7 835 534.7C849 532.7 863 526.3 876.8 525.2C890.7 524 904.3 528 918.2 526.2C932 524.3 946 516.7 953 512.8L960 509L960 541L953 541C946 541 932 541 918.2 541C904.3 541 890.7 541 876.8 541C863 541 849 541 835 541C821 541 807 541 793 541C779 541 765 541 751.2 541C737.3 541 723.7 541 709.8 541C696 541 682 541 668 541C654 541 640 541 626 541C612 541 598 541 584.2 541C570.3 541 556.7 541 542.8 541C529 541 515 541 501 541C487 541 473 541 459 541C445 541 431 541 417.2 541C403.3 541 389.7 541 375.8 541C362 541 348 541 334 541C320 541 306 541 292 541C278 541 264 541 250.2 541C236.3 541 222.7 541 208.8 541C195 541 181 541 167 541C153 541 139 541 125 541C111 541 97 541 83.2 541C69.3 541 55.7 541 41.8 541C28 541 14 541 7 541L0 541Z" fill="#141414"></path></svg>