<svg id="visual" viewBox="0 0 960 540" width="960" height="540" xmlns="http://www.w3.org/2000/svg" xmlns:xlink="http://www.w3.org/1999/xlink" version="1.1"><rect x="0" y="0" width="960" height="540" fill="#1e1e1e"></rect><path d="M0 179L8 165.8C16 152.7 32 126.3 48 104.3C64 82.3 80 64.7 96 52.7C112 40.7 128 34.3 144 62.2C160 90 176 152 192 169C208 186 224 158 240 128C256 98 272 66 288 52.3C304 38.7 320 43.3 336 44.8C352 46.3 368 44.7 384 49.7C400 54.7 416 66.3 432 82C448 97.7 464 117.3 480 128.5C496 139.7 512 142.3 528 126.7C544 111 560 77 576 58.5C592 40 608 37 624 63.8C640 90.7 656 147.3 672 148.2C688 149 704 94 720 94.3C736 94.7 752 150.3 768 166.3C784 182.3 800 158.7 816 129.5C832 100.3 848 65.7 864 72.3C880 79 896 127 912 131C928 135 944 95 952 75L960 55L960 0L952 0C944 0 928 0 912 0C896 0 880 0 864 0C848 0 832 0 816 0C800 0 784 0 768 0C752 0 736 0 720 0C704 0 688 0 672 0C656 0 640 0 624 0C608 0 592 0 576 0C560 0 544 0 528 0C512 0 496 0 480 0C464 0 448 0 432 0C416 0 400 0 384 0C368 0 352 0 336 0C320 0 304 0 288 0C272 0 256 0 240 0C224 0 208 0 192 0C176 0 160 0 144 0C128 0 112 0 96 0C80 0 64 0 48 0C32 0 16 0 8 0L0 0Z" fill="#1e1e1e"></path><path d="M0 134L8 116C16 98 32 62 48 50.3C64 38.7 80 51.3 96 51.7C112 52 128 40 144 34.2C160 28.3 176 28.7 192 31.5C208 34.3 224 39.7 240 58.3C256 77 272 109 288 126.2C304 143.3 320 145.7 336 142.8C352 140 368 132 384 133.7C400 135.3 416 146.7 432 142.8C448 139 464 120 480 100.2C496 80.3 512 59.7 528 69.5C544 79.3 560 119.7 576 121.5C592 123.3 608 86.7 624 88.2C640 89.7 656 129.3 672 152.3C688 175.3 704 181.7 720 164.2C736 146.7 752 105.3 768 89.5C784 73.7 800 83.3 816 82.7C832 82 848 71 864 59.7C880 48.3 896 36.7 912 50.8C928 65 944 105 952 125L960 145L960 0L952 0C944 0 928 0 912 0C896 0 880 0 864 0C848 0 832 0 816 0C800 0 784 0 768 0C752 0 736 0 720 0C704 0 688 0 672 0C656 0 640 0 624 0C608 0 592 0 576 0C560 0 544 0 528 0C512 0 496 0 480 0C464 0 448 0 432 0C416 0 400 0 384 0C368 0 352 0 336 0C320 0 304 0 288 0C272 0 256 0 240 0C224 0 208 0 192 0C176 0 160 0 144 0C128 0 112 0 96 0C80 0 64 0 48 0C32 0 16 0 8 0L0 0Z" fill="#243a3c"></path><path d="M0 88L8 84C16 80 32 72 48 83.7C64 95.3 80 126.7 96 137C112 147.3 128 136.7 144 129C160 121.3 176 116.7 192 123.8C208 131 224 150 240 157.8C256 165.7 272 162.3 288 160.7C304 159 320 159 336 158C352 157 368 155 384 133.8C400 112.7 416 72.3 432 48.8C448 25.3 464 18.7 480 18.2C496 17.7 512 23.3 528 32.7C544 42 560 55 576 66C592 77 608 86 624 96.5C640 107 656 119 672 113C688 107 704 83 720 82C736 81 752 103 768 106.3C784 109.7 800 94.3 816 83.8C832 73.3 848 67.7 864 57C880 46.3 896 30.7 912 22.5C928 14.3 944 13.7 952 13.3L960 13L960 0L952 0C944 0 928 0 912 0C896 0 880 0 864 0C848 0 832 0 816 0C800 0 784 0 768 0C752 0 736 0 720 0C704 0 688 0 672 0C656 0 640 0 624 0C608 0 592 0 576 0C560 0 544 0 528 0C512 0 496 0 480 0C464 0 448 0 432 0C416 0 400 0 384 0C368 0 352 0 336 0C320 0 304 0 288 0C272 0 256 0 240 0C224 0 208 0 192 0C176 0 160 0 144 0C128 0 112 0 96 0C80 0 64 0 48 0C32 0 16 0 8 0L0 0Z" fill="#22575c"></path><path d="M0 16L8 22C16 28 32 40 48 53.8C64 67.7 80 83.3 96 84.7C112 86 128 73 144 78.8C160 84.7 176 109.3 192 115.8C208 122.3 224 110.7 240 102.7C256 94.7 272 90.3 288 96.7C304 103 320 120 336 125.8C352 131.7 368 126.3 384 121.8C400 117.3 416 113.7 432 98.2C448 82.7 464 55.3 480 47.5C496 39.7 512 51.3 528 57.3C544 63.3 560 63.7 576 60C592 56.3 608 48.7 624 56.8C640 65 656 89 672 89.7C688 90.3 704 67.7 720 53.8C736 40 752 35 768 33.2C784 31.3 800 32.7 816 41.3C832 50 848 66 864 74.7C880 83.3 896 84.7 912 81.7C928 78.7 944 71.3 952 67.7L960 64L960 0L952 0C944 0 928 0 912 0C896 0 880 0 864 0C848 0 832 0 816 0C800 0 784 0 768 0C752 0 736 0 720 0C704 0 688 0 672 0C656 0 640 0 624 0C608 0 592 0 576 0C560 0 544 0 528 0C512 0 496 0 480 0C464 0 448 0 432 0C416 0 400 0 384 0C368 0 352 0 336 0C320 0 304 0 288 0C272 0 256 0 240 0C224 0 208 0 192 0C176 0 160 0 144 0C128 0 112 0 96 0C80 0 64 0 48 0C32 0 16 0 8 0L0 0Z" fill="#0d7680"></path><path d="M0 33L8 35.7C16 38.3 32 43.7 48 46.8C64 50 80 51 96 61.3C112 71.7 128 91.3 144 84.5C160 77.7 176 44.3 192 30.2C208 16 224 21 240 34.5C256 48 272 70 288 83.7C304 97.3 320 102.7 336 91C352 79.3 368 50.7 384 36.5C400 22.3 416 22.7 432 32.7C448 42.7 464 62.3 480 77.2C496 92 512 102 528 91.5C544 81 560 50 576 46.2C592 42.3 608 65.7 624 80C640 94.3 656 99.7 672 104.5C688 109.3 704 113.7 720 104.5C736 95.3 752 72.7 768 60.2C784 47.7 800 45.3 816 40C832 34.7 848 26.3 864 38.5C880 50.7 896 83.3 912 83.3C928 83.3 944 50.7 952 34.3L960 18L960 0L952 0C944 0 928 0 912 0C896 0 880 0 864 0C848 0 832 0 816 0C800 0 784 0 768 0C752 0 736 0 720 0C704 0 688 0 672 0C656 0 640 0 624 0C608 0 592 0 576 0C560 0 544 0 528 0C512 0 496 0 480 0C464 0 448 0 432 0C416 0 400 0 384 0C368 0 352 0 336 0C320 0 304 0 288 0C272 0 256 0 240 0C224 0 208 0 192 0C176 0 160 0 144 0C128 0 112 0 96 0C80 0 64 0 48 0C32 0 16 0 8 0L0 0Z" fill="#007c87"></path><path d="M0 55L8 50.3C16 45.7 32 36.3 48 37.8C64 39.3 80 51.7 96 49.8C112 48 128 32 144 28.3C160 24.7 176 33.3 192 32.8C208 32.3 224 22.7 240 28C256 33.3 272 53.7 288 64.8C304 76 320 78 336 79.7C352 81.3 368 82.7 384 77.5C400 72.3 416 60.7 432 64.2C448 67.7 464 86.3 480 96C496 105.7 512 106.3 528 90.2C544 74 560 41 576 35.8C592 30.7 608 53.3 624 53.7C640 54 656 32 672 31C688 30 704 50 720 51.8C736 53.7 752 37.3 768 31C784 24.7 800 28.3 816 28.5C832 28.7 848 25.3 864 21.2C880 17 896 12 912 17.3C928 22.7 944 38.3 952 46.2L960 54L960 0L952 0C944 0 928 0 912 0C896 0 880 0 864 0C848 0 832 0 816 0C800 0 784 0 768 0C752 0 736 0 720 0C704 0 688 0 672 0C656 0 640 0 624 0C608 0 592 0 576 0C560 0 544 0 528 0C512 0 496 0 480 0C464 0 448 0 432 0C416 0 400 0 384 0C368 0 352 0 336 0C320 0 304 0 288 0C272 0 256 0 240 0C224 0 208 0 192 0C176 0 160 0 144 0C128 0 112 0 96 0C80 0 64 0 48 0C32 0 16 0 8 0L0 0Z" fill="#0d7680"></path><path d="M0 81L8 73.2C16 65.3 32 49.7 48 40.2C64 30.7 80 27.3 96 24.2C112 21 128 18 144 24.7C160 31.3 176 47.7 192 47.8C208 48 224 32 240 30C256 28 272 40 288 39.3C304 38.7 320 25.3 336 17.8C352 10.3 368 8.7 384 15.5C400 22.3 416 37.7 432 46.2C448 54.7 464 56.3 480 49.3C496 42.3 512 26.7 528 25.8C544 25 560 39 576 41.3C592 43.7 608 34.3 624 28.7C640 23 656 21 672 24.7C688 28.3 704 37.7 720 44.8C736 52 752 57 768 62C784 67 800 72 816 66.5C832 61 848 45 864 38.8C880 32.7 896 36.3 912 38C928 39.7 944 39.3 952 39.2L960 39L960 0L952 0C944 0 928 0 912 0C896 0 880 0 864 0C848 0 832 0 816 0C800 0 784 0 768 0C752 0 736 0 720 0C704 0 688 0 672 0C656 0 640 0 624 0C608 0 592 0 576 0C560 0 544 0 528 0C512 0 496 0 480 0C464 0 448 0 432 0C416 0 400 0 384 0C368 0 352 0 336 0C320 0 304 0 288 0C272 0 256 0 240 0C224 0 208 0 192 0C176 0 160 0 144 0C128 0 112 0 96 0C80 0 64 0 48 0C32 0 16 0 8 0L0 0Z" fill="#22575c"></path><path d="M0 18L8 15.2C16 12.3 32 6.7 48 14C64 21.3 80 41.7 96 42.5C112 43.3 128 24.7 144 17.5C160 10.3 176 14.7 192 20.2C208 25.7 224 32.3 240 35C256 37.7 272 36.3 288 31.7C304 27 320 19 336 18.7C352 18.3 368 25.7 384 25.8C400 26 416 19 432 20.3C448 21.7 464 31.3 480 37.3C496 43.3 512 45.7 528 44.2C544 42.7 560 37.3 576 33.3C592 29.3 608 26.7 624 27.2C640 27.7 656 31.3 672 36C688 40.7 704 46.3 720 45.3C736 44.3 752 36.7 768 30.2C784 23.7 800 18.3 816 14C832 9.7 848 6.3 864 5C880 3.7 896 4.3 912 12.5C928 20.7 944 36.3 952 44.2L960 52L960 0L952 0C944 0 928 0 912 0C896 0 880 0 864 0C848 0 832 0 816 0C800 0 784 0 768 0C752 0 736 0 720 0C704 0 688 0 672 0C656 0 640 0 624 0C608 0 592 0 576 0C560 0 544 0 528 0C512 0 496 0 480 0C464 0 448 0 432 0C416 0 400 0 384 0C368 0 352 0 336 0C320 0 304 0 288 0C272 0 256 0 240 0C224 0 208 0 192 0C176 0 160 0 144 0C128 0 112 0 96 0C80 0 64 0 48 0C32 0 16 0 8 0L0 0Z" fill="#243a3c"></path><path d="M0 11L8 10.5C16 10 32 9 48 11.7C64 14.3 80 20.7 96 24C112 27.3 128 27.7 144 24.3C160 21 176 14 192 9.3C208 4.7 224 2.3 240 7C256 11.7 272 23.3 288 27.5C304 31.7 320 28.3 336 22.7C352 17 368 9 384 7.3C400 5.7 416 10.3 432 16.5C448 22.7 464 30.3 480 28.7C496 27 512 16 528 15C544 14 560 23 576 26.3C592 29.7 608 27.3 624 28.5C640 29.7 656 34.3 672 36C688 37.7 704 36.3 720 32.5C736 28.7 752 22.3 768 19.5C784 16.7 800 17.3 816 19.3C832 21.3 848 24.7 864 24.3C880 24 896 20 912 20.8C928 21.7 944 27.3 952 30.2L960 33L960 0L952 0C944 0 928 0 912 0C896 0 880 0 864 0C848 0 832 0 816 0C800 0 784 0 768 0C752 0 736 0 720 0C704 0 688 0 672 0C656 0 640 0 624 0C608 0 592 0 576 0C560 0 544 0 528 0C512 0 496 0 480 0C464 0 448 0 432 0C416 0 400 0 384 0C368 0 352 0 336 0C320 0 304 0 288 0C272 0 256 0 240 0C224 0 208 0 192 0C176 0 160 0 144 0C128 0 112 0 96 0C80 0 64 0 48 0C32 0 16 0 8 0L0 0Z" fill="#1e1e1e"></path></svg>