<svg id="visual" viewBox="0 0 960 540" width="960" height="540" xmlns="http://www.w3.org/2000/svg" xmlns:xlink="http://www.w3.org/1999/xlink" version="1.1"><rect x="0" y="0" width="960" height="540" fill="#e7e7e7"></rect><path d="M0 146L10.7 140.3C21.3 134.7 42.7 123.3 64 131.8C85.3 140.3 106.7 168.7 128 181.3C149.3 194 170.7 191 192 178.3C213.3 165.7 234.7 143.3 256 130.2C277.3 117 298.7 113 320 119.7C341.3 126.3 362.7 143.7 384 150.7C405.3 157.7 426.7 154.3 448 161C469.3 167.7 490.7 184.3 512 178.2C533.3 172 554.7 143 576 141.7C597.3 140.3 618.7 166.7 640 171.7C661.3 176.7 682.7 160.3 704 161.5C725.3 162.7 746.7 181.3 768 186.2C789.3 191 810.7 182 832 169.7C853.3 157.3 874.7 141.7 896 131.8C917.3 122 938.7 118 949.3 116L960 114L960 0L949.3 0C938.7 0 917.3 0 896 0C874.7 0 853.3 0 832 0C810.7 0 789.3 0 768 0C746.7 0 725.3 0 704 0C682.7 0 661.3 0 640 0C618.7 0 597.3 0 576 0C554.7 0 533.3 0 512 0C490.7 0 469.3 0 448 0C426.7 0 405.3 0 384 0C362.7 0 341.3 0 320 0C298.7 0 277.3 0 256 0C234.7 0 213.3 0 192 0C170.7 0 149.3 0 128 0C106.7 0 85.3 0 64 0C42.7 0 21.3 0 10.7 0L0 0Z" fill="#373737"></path><path d="M0 158L10.7 151.2C21.3 144.3 42.7 130.7 64 124.3C85.3 118 106.7 119 128 120.2C149.3 121.3 170.7 122.7 192 128.5C213.3 134.3 234.7 144.7 256 143.7C277.3 142.7 298.7 130.3 320 122.8C341.3 115.3 362.7 112.7 384 121.7C405.3 130.7 426.7 151.3 448 156.2C469.3 161 490.7 150 512 142.5C533.3 135 554.7 131 576 137.3C597.3 143.7 618.7 160.3 640 154.8C661.3 149.3 682.7 121.7 704 107.7C725.3 93.7 746.7 93.3 768 92.2C789.3 91 810.7 89 832 90.5C853.3 92 874.7 97 896 105.3C917.3 113.7 938.7 125.3 949.3 131.2L960 137L960 0L949.3 0C938.7 0 917.3 0 896 0C874.7 0 853.3 0 832 0C810.7 0 789.3 0 768 0C746.7 0 725.3 0 704 0C682.7 0 661.3 0 640 0C618.7 0 597.3 0 576 0C554.7 0 533.3 0 512 0C490.7 0 469.3 0 448 0C426.7 0 405.3 0 384 0C362.7 0 341.3 0 320 0C298.7 0 277.3 0 256 0C234.7 0 213.3 0 192 0C170.7 0 149.3 0 128 0C106.7 0 85.3 0 64 0C42.7 0 21.3 0 10.7 0L0 0Z" fill="#292929"></path><path d="M0 122L10.7 124.2C21.3 126.3 42.7 130.7 64 122.5C85.3 114.3 106.7 93.7 128 94.3C149.3 95 170.7 117 192 116.5C213.3 116 234.7 93 256 82C277.3 71 298.7 72 320 81.5C341.3 91 362.7 109 384 111.5C405.3 114 426.7 101 448 97C469.3 93 490.7 98 512 98.2C533.3 98.3 554.7 93.7 576 96C597.3 98.3 618.7 107.7 640 109C661.3 110.3 682.7 103.7 704 99.2C725.3 94.7 746.7 92.3 768 93.7C789.3 95 810.7 100 832 100.7C853.3 101.3 874.7 97.7 896 92.8C917.3 88 938.7 82 949.3 79L960 76L960 0L949.3 0C938.7 0 917.3 0 896 0C874.7 0 853.3 0 832 0C810.7 0 789.3 0 768 0C746.7 0 725.3 0 704 0C682.7 0 661.3 0 640 0C618.7 0 597.3 0 576 0C554.7 0 533.3 0 512 0C490.7 0 469.3 0 448 0C426.7 0 405.3 0 384 0C362.7 0 341.3 0 320 0C298.7 0 277.3 0 256 0C234.7 0 213.3 0 192 0C170.7 0 149.3 0 128 0C106.7 0 85.3 0 64 0C42.7 0 21.3 0 10.7 0L0 0Z" fill="#1b1b1b"></path><path d="M0 119L10.7 119.2C21.3 119.3 42.7 119.7 64 110.8C85.3 102 106.7 84 128 74.3C149.3 64.7 170.7 63.3 192 65.7C213.3 68 234.7 74 256 74.8C277.3 75.7 298.7 71.3 320 72.2C341.3 73 362.7 79 384 84.2C405.3 89.3 426.7 93.7 448 99.2C469.3 104.7 490.7 111.3 512 113C533.3 114.7 554.7 111.3 576 109.7C597.3 108 618.7 108 640 105.2C661.3 102.3 682.7 96.7 704 96C725.3 95.3 746.7 99.7 768 100.2C789.3 100.7 810.7 97.3 832 88C853.3 78.7 874.7 63.3 896 56C917.3 48.7 938.7 49.3 949.3 49.7L960 50L960 0L949.3 0C938.7 0 917.3 0 896 0C874.7 0 853.3 0 832 0C810.7 0 789.3 0 768 0C746.7 0 725.3 0 704 0C682.7 0 661.3 0 640 0C618.7 0 597.3 0 576 0C554.7 0 533.3 0 512 0C490.7 0 469.3 0 448 0C426.7 0 405.3 0 384 0C362.7 0 341.3 0 320 0C298.7 0 277.3 0 256 0C234.7 0 213.3 0 192 0C170.7 0 149.3 0 128 0C106.7 0 85.3 0 64 0C42.7 0 21.3 0 10.7 0L0 0Z" fill="#131313"></path><path d="M0 72L10.7 68.3C21.3 64.7 42.7 57.3 64 55.3C85.3 53.3 106.7 56.7 128 62.2C149.3 67.7 170.7 75.3 192 69.7C213.3 64 234.7 45 256 40.2C277.3 35.3 298.7 44.7 320 48.2C341.3 51.7 362.7 49.3 384 48.2C405.3 47 426.7 47 448 45.8C469.3 44.7 490.7 42.3 512 43.7C533.3 45 554.7 50 576 55.2C597.3 60.3 618.7 65.7 640 68.2C661.3 70.7 682.7 70.3 704 63.3C725.3 56.3 746.7 42.7 768 44.7C789.3 46.7 810.7 64.3 832 64C853.3 63.7 874.7 45.3 896 46.3C917.3 47.3 938.7 67.7 949.3 77.8L960 88L960 0L949.3 0C938.7 0 917.3 0 896 0C874.7 0 853.3 0 832 0C810.7 0 789.3 0 768 0C746.7 0 725.3 0 704 0C682.7 0 661.3 0 640 0C618.7 0 597.3 0 576 0C554.7 0 533.3 0 512 0C490.7 0 469.3 0 448 0C426.7 0 405.3 0 384 0C362.7 0 341.3 0 320 0C298.7 0 277.3 0 256 0C234.7 0 213.3 0 192 0C170.7 0 149.3 0 128 0C106.7 0 85.3 0 64 0C42.7 0 21.3 0 10.7 0L0 0Z" fill="#121212"></path><path d="M0 22L10.7 22.5C21.3 23 42.7 24 64 26.5C85.3 29 106.7 33 128 37C149.3 41 170.7 45 192 47.8C213.3 50.7 234.7 52.3 256 45.3C277.3 38.3 298.7 22.7 320 14.5C341.3 6.3 362.7 5.7 384 6.5C405.3 7.3 426.7 9.7 448 17C469.3 24.3 490.7 36.7 512 42.3C533.3 48 554.7 47 576 42C597.3 37 618.7 28 640 20.7C661.3 13.3 682.7 7.7 704 10.2C725.3 12.7 746.7 23.3 768 32.8C789.3 42.3 810.7 50.7 832 45.7C853.3 40.7 874.7 22.3 896 16.8C917.3 11.3 938.7 18.7 949.3 22.3L960 26L960 0L949.3 0C938.7 0 917.3 0 896 0C874.7 0 853.3 0 832 0C810.7 0 789.3 0 768 0C746.7 0 725.3 0 704 0C682.7 0 661.3 0 640 0C618.7 0 597.3 0 576 0C554.7 0 533.3 0 512 0C490.7 0 469.3 0 448 0C426.7 0 405.3 0 384 0C362.7 0 341.3 0 320 0C298.7 0 277.3 0 256 0C234.7 0 213.3 0 192 0C170.7 0 149.3 0 128 0C106.7 0 85.3 0 64 0C42.7 0 21.3 0 10.7 0L0 0Z" fill="#101010"></path></svg>