<svg id="visual" viewBox="0 0 960 540" width="960" height="540" xmlns="http://www.w3.org/2000/svg" xmlns:xlink="http://www.w3.org/1999/xlink" version="1.1"><rect x="0" y="0" width="960" height="540" fill="#e7e7e7"></rect><defs><linearGradient id="grad1_0" x1="43.8%" y1="100%" x2="100%" y2="0%"><stop offset="14.444444444444446%" stop-color="#141414" stop-opacity="1"></stop><stop offset="85.55555555555554%" stop-color="#141414" stop-opacity="1"></stop></linearGradient></defs><defs><linearGradient id="grad1_1" x1="43.8%" y1="100%" x2="100%" y2="0%"><stop offset="14.444444444444446%" stop-color="#141414" stop-opacity="1"></stop><stop offset="85.55555555555554%" stop-color="#747474" stop-opacity="1"></stop></linearGradient></defs><defs><linearGradient id="grad1_2" x1="43.8%" y1="100%" x2="100%" y2="0%"><stop offset="14.444444444444446%" stop-color="#e7e7e7" stop-opacity="1"></stop><stop offset="85.55555555555554%" stop-color="#747474" stop-opacity="1"></stop></linearGradient></defs><defs><linearGradient id="grad2_0" x1="0%" y1="100%" x2="56.3%" y2="0%"><stop offset="14.444444444444446%" stop-color="#141414" stop-opacity="1"></stop><stop offset="85.55555555555554%" stop-color="#141414" stop-opacity="1"></stop></linearGradient></defs><defs><linearGradient id="grad2_1" x1="0%" y1="100%" x2="56.3%" y2="0%"><stop offset="14.444444444444446%" stop-color="#747474" stop-opacity="1"></stop><stop offset="85.55555555555554%" stop-color="#141414" stop-opacity="1"></stop></linearGradient></defs><defs><linearGradient id="grad2_2" x1="0%" y1="100%" x2="56.3%" y2="0%"><stop offset="14.444444444444446%" stop-color="#747474" stop-opacity="1"></stop><stop offset="85.55555555555554%" stop-color="#e7e7e7" stop-opacity="1"></stop></linearGradient></defs><g transform="translate(960, 540)"><path d="M-405 0C-343 -25.5 -281 -51.1 -259.6 -84.4C-238.3 -117.7 -257.5 -158.7 -245.9 -178.7C-234.4 -198.6 -192.1 -197.5 -171 -235.4C-150 -273.4 -150.1 -350.4 -125.2 -385.2C-100.2 -420 -50.1 -412.5 0 -405L0 0Z" fill="#acacac"></path><path d="M-270 0C-228.7 -17 -187.3 -34 -173.1 -56.2C-158.8 -78.4 -171.7 -105.8 -164 -119.1C-156.3 -132.4 -128.1 -131.7 -114 -156.9C-100 -182.2 -100.1 -233.6 -83.4 -256.8C-66.8 -280 -33.4 -275 0 -270L0 0Z" fill="#414141"></path><path d="M-135 0C-114.3 -8.5 -93.7 -17 -86.5 -28.1C-79.4 -39.2 -85.8 -52.9 -82 -59.6C-78.1 -66.2 -64 -65.8 -57 -78.5C-50 -91.1 -50 -116.8 -41.7 -128.4C-33.4 -140 -16.7 -137.5 0 -135L0 0Z" fill="#141414"></path></g><g transform="translate(0, 0)"><path d="M405 0C368 29.3 331 58.5 328.1 106.6C325.3 154.7 356.6 221.6 327.7 238.1C298.7 254.5 209.6 220.4 166.3 229C123.1 237.5 125.8 288.8 105.7 325.3C85.6 361.7 42.8 383.4 0 405L0 0Z" fill="#acacac"></path><path d="M270 0C245.3 19.5 220.6 39 218.7 71.1C216.8 103.1 237.7 147.8 218.4 158.7C199.2 169.6 139.7 146.9 110.9 152.6C82.1 158.4 83.8 192.5 70.5 216.8C57.1 241.1 28.5 255.6 0 270L0 0Z" fill="#414141"></path><path d="M135 0C122.7 9.8 110.3 19.5 109.4 35.5C108.4 51.6 118.9 73.9 109.2 79.4C99.6 84.8 69.9 73.5 55.4 76.3C41 79.2 41.9 96.3 35.2 108.4C28.5 120.6 14.3 127.8 0 135L0 0Z" fill="#141414"></path></g></svg>