<svg id="visual" viewBox="0 0 960 540" width="960" height="540" xmlns="http://www.w3.org/2000/svg" xmlns:xlink="http://www.w3.org/1999/xlink" version="1.1"><rect x="0" y="0" width="960" height="540" fill="#1e1e1e"></rect><defs><linearGradient id="grad1_0" x1="43.8%" y1="100%" x2="100%" y2="0%"><stop offset="14.444444444444446%" stop-color="#007c87" stop-opacity="1"></stop><stop offset="85.55555555555554%" stop-color="#007c87" stop-opacity="1"></stop></linearGradient></defs><defs><linearGradient id="grad1_1" x1="43.8%" y1="100%" x2="100%" y2="0%"><stop offset="14.444444444444446%" stop-color="#007c87" stop-opacity="1"></stop><stop offset="85.55555555555554%" stop-color="#205b61" stop-opacity="1"></stop></linearGradient></defs><defs><linearGradient id="grad1_2" x1="43.8%" y1="100%" x2="100%" y2="0%"><stop offset="14.444444444444446%" stop-color="#243b3e" stop-opacity="1"></stop><stop offset="85.55555555555554%" stop-color="#205b61" stop-opacity="1"></stop></linearGradient></defs><defs><linearGradient id="grad1_3" x1="43.8%" y1="100%" x2="100%" y2="0%"><stop offset="14.444444444444446%" stop-color="#243b3e" stop-opacity="1"></stop><stop offset="85.55555555555554%" stop-color="#1e1e1e" stop-opacity="1"></stop></linearGradient></defs><defs><linearGradient id="grad2_0" x1="0%" y1="100%" x2="56.3%" y2="0%"><stop offset="14.444444444444446%" stop-color="#007c87" stop-opacity="1"></stop><stop offset="85.55555555555554%" stop-color="#007c87" stop-opacity="1"></stop></linearGradient></defs><defs><linearGradient id="grad2_1" x1="0%" y1="100%" x2="56.3%" y2="0%"><stop offset="14.444444444444446%" stop-color="#205b61" stop-opacity="1"></stop><stop offset="85.55555555555554%" stop-color="#007c87" stop-opacity="1"></stop></linearGradient></defs><defs><linearGradient id="grad2_2" x1="0%" y1="100%" x2="56.3%" y2="0%"><stop offset="14.444444444444446%" stop-color="#205b61" stop-opacity="1"></stop><stop offset="85.55555555555554%" stop-color="#243b3e" stop-opacity="1"></stop></linearGradient></defs><defs><linearGradient id="grad2_3" x1="0%" y1="100%" x2="56.3%" y2="0%"><stop offset="14.444444444444446%" stop-color="#1e1e1e" stop-opacity="1"></stop><stop offset="85.55555555555554%" stop-color="#243b3e" stop-opacity="1"></stop></linearGradient></defs><g transform="translate(960, 540)"><path d="M-243 0C-245.1 -22.7 -247.1 -45.4 -234.7 -62.9C-222.3 -80.3 -195.5 -92.5 -174.1 -100.5C-152.7 -108.5 -136.6 -112.3 -128.7 -128.7C-120.7 -145.1 -120.8 -174 -110.5 -191.4C-100.2 -208.8 -79.4 -214.5 -59.3 -221.2C-39.1 -227.9 -19.6 -235.4 0 -243L0 0Z" fill="#222c2e"></path><path d="M-182.2 0C-183.8 -17 -185.3 -34.1 -176 -47.2C-166.7 -60.3 -146.6 -69.4 -130.6 -75.4C-114.5 -81.4 -102.5 -84.2 -96.5 -96.5C-90.6 -108.8 -90.6 -130.5 -82.9 -143.5C-75.1 -156.6 -59.6 -160.9 -44.5 -165.9C-29.3 -170.9 -14.7 -176.6 0 -182.2L0 0Z" fill="#244b4f"></path><path d="M-121.5 0C-122.5 -11.4 -123.6 -22.7 -117.4 -31.4C-111.2 -40.2 -97.7 -46.3 -87 -50.3C-76.3 -54.2 -68.3 -56.2 -64.3 -64.3C-60.4 -72.5 -60.4 -87 -55.3 -95.7C-50.1 -104.4 -39.7 -107.3 -29.6 -110.6C-19.6 -113.9 -9.8 -117.7 0 -121.5L0 0Z" fill="#186b74"></path><path d="M-60.7 0C-61.3 -5.7 -61.8 -11.4 -58.7 -15.7C-55.6 -20.1 -48.9 -23.1 -43.5 -25.1C-38.2 -27.1 -34.2 -28.1 -32.2 -32.2C-30.2 -36.3 -30.2 -43.5 -27.6 -47.8C-25 -52.2 -19.9 -53.6 -14.8 -55.3C-9.8 -57 -4.9 -58.9 0 -60.7L0 0Z" fill="#007c87"></path></g><g transform="translate(0, 0)"><path d="M243 0C211.9 14.3 180.8 28.6 176.8 47.4C172.7 66.1 195.6 89.3 201.8 116.5C208 143.7 197.5 175 168.3 168.3C139.1 161.6 91.2 117 74 128.2C56.8 139.3 70.1 206.3 62.9 234.7C55.7 263.2 27.8 253.1 0 243L0 0Z" fill="#222c2e"></path><path d="M182.3 0C158.9 10.7 135.6 21.5 132.6 35.5C129.5 49.6 146.7 67 151.3 87.4C156 107.8 148.1 131.2 126.2 126.2C104.3 121.2 68.4 87.8 55.5 96.1C42.6 104.5 52.6 154.7 47.2 176C41.7 197.4 20.9 189.8 0 182.3L0 0Z" fill="#244b4f"></path><path d="M121.5 0C106 7.2 90.4 14.3 88.4 23.7C86.3 33.1 97.8 44.6 100.9 58.2C104 71.9 98.7 87.5 84.1 84.1C69.6 80.8 45.6 58.5 37 64.1C28.4 69.7 35.1 103.1 31.4 117.4C27.8 131.6 13.9 126.5 0 121.5L0 0Z" fill="#186b74"></path><path d="M60.8 0C53 3.6 45.2 7.2 44.2 11.8C43.2 16.5 48.9 22.3 50.4 29.1C52 35.9 49.4 43.7 42.1 42.1C34.8 40.4 22.8 29.3 18.5 32C14.2 34.8 17.5 51.6 15.7 58.7C13.9 65.8 7 63.3 0 60.8L0 0Z" fill="#007c87"></path></g></svg>