<svg id="visual" viewBox="0 0 900 600" width="900" height="600" xmlns="http://www.w3.org/2000/svg" xmlns:xlink="http://www.w3.org/1999/xlink" version="1.1"><rect x="0" y="0" width="900" height="600" fill="#e7e7e7"></rect><path d="M0 162L15 178.5C30 195 60 228 90 225C120 222 150 183 180 164.3C210 145.7 240 147.3 270 152C300 156.7 330 164.3 360 165.2C390 166 420 160 450 170.3C480 180.7 510 207.3 540 206.3C570 205.3 600 176.7 630 172.7C660 168.7 690 189.3 720 203.2C750 217 780 224 810 220C840 216 870 201 885 193.5L900 186L900 0L885 0C870 0 840 0 810 0C780 0 750 0 720 0C690 0 660 0 630 0C600 0 570 0 540 0C510 0 480 0 450 0C420 0 390 0 360 0C330 0 300 0 270 0C240 0 210 0 180 0C150 0 120 0 90 0C60 0 30 0 15 0L0 0Z" fill="#794db6"></path><path d="M0 161L15 164.7C30 168.3 60 175.7 90 167.8C120 160 150 137 180 129.8C210 122.7 240 131.3 270 147.5C300 163.7 330 187.3 360 199C390 210.7 420 210.3 450 196.3C480 182.3 510 154.7 540 139.5C570 124.3 600 121.7 630 136.8C660 152 690 185 720 199.5C750 214 780 210 810 193.8C840 177.7 870 149.3 885 135.2L900 121L900 0L885 0C870 0 840 0 810 0C780 0 750 0 720 0C690 0 660 0 630 0C600 0 570 0 540 0C510 0 480 0 450 0C420 0 390 0 360 0C330 0 300 0 270 0C240 0 210 0 180 0C150 0 120 0 90 0C60 0 30 0 15 0L0 0Z" fill="#6c68cd"></path><path d="M0 103L15 98.5C30 94 60 85 90 95.3C120 105.7 150 135.3 180 137.5C210 139.7 240 114.3 270 104.8C300 95.3 330 101.7 360 106.8C390 112 420 116 450 120.3C480 124.7 510 129.3 540 121.8C570 114.3 600 94.7 630 97.5C660 100.3 690 125.7 720 139.5C750 153.3 780 155.7 810 156.2C840 156.7 870 155.3 885 154.7L900 154L900 0L885 0C870 0 840 0 810 0C780 0 750 0 720 0C690 0 660 0 630 0C600 0 570 0 540 0C510 0 480 0 450 0C420 0 390 0 360 0C330 0 300 0 270 0C240 0 210 0 180 0C150 0 120 0 90 0C60 0 30 0 15 0L0 0Z" fill="#5e80df"></path><path d="M0 84L15 84.8C30 85.7 60 87.3 90 80.5C120 73.7 150 58.3 180 52.5C210 46.7 240 50.3 270 58.8C300 67.3 330 80.7 360 88.3C390 96 420 98 450 103.3C480 108.7 510 117.3 540 111.3C570 105.3 600 84.7 630 80C660 75.3 690 86.7 720 85C750 83.3 780 68.7 810 66C840 63.3 870 72.7 885 77.3L900 82L900 0L885 0C870 0 840 0 810 0C780 0 750 0 720 0C690 0 660 0 630 0C600 0 570 0 540 0C510 0 480 0 450 0C420 0 390 0 360 0C330 0 300 0 270 0C240 0 210 0 180 0C150 0 120 0 90 0C60 0 30 0 15 0L0 0Z" fill="#5297ed"></path><path d="M0 70L15 65.2C30 60.3 60 50.7 90 45.3C120 40 150 39 180 40C210 41 240 44 270 46.7C300 49.3 330 51.7 360 51C390 50.3 420 46.7 450 41C480 35.3 510 27.7 540 32C570 36.3 600 52.7 630 61.8C660 71 690 73 720 72.8C750 72.7 780 70.3 810 65.2C840 60 870 52 885 48L900 44L900 0L885 0C870 0 840 0 810 0C780 0 750 0 720 0C690 0 660 0 630 0C600 0 570 0 540 0C510 0 480 0 450 0C420 0 390 0 360 0C330 0 300 0 270 0C240 0 210 0 180 0C150 0 120 0 90 0C60 0 30 0 15 0L0 0Z" fill="#4facf7"></path></svg>